<mxfile host="app.diagrams.net" modified="2023-04-19T03:44:47.941Z" agent="Mozilla/5.0 (Macintosh; Intel Mac OS X 10_15_7) AppleWebKit/537.36 (KHTML, like Gecko) Chrome/112.0.0.0 Safari/537.36" etag="6ntaYkGck9J6YGXpcwXp" version="21.1.9" type="github">
  <diagram id="C5RBs43oDa-KdzZeNtuy" name="Page-1">
    <mxGraphModel dx="1143" dy="677" grid="1" gridSize="10" guides="1" tooltips="1" connect="1" arrows="1" fold="1" page="1" pageScale="1" pageWidth="827" pageHeight="1169" math="0" shadow="0">
      <root>
        <mxCell id="WIyWlLk6GJQsqaUBKTNV-0" />
        <mxCell id="WIyWlLk6GJQsqaUBKTNV-1" parent="WIyWlLk6GJQsqaUBKTNV-0" />
        <mxCell id="nTqg5RGJuCzNT9uh4TaG-5" value="" style="endArrow=none;dashed=1;html=1;dashPattern=1 3;strokeWidth=2;rounded=0;" edge="1" parent="WIyWlLk6GJQsqaUBKTNV-1">
          <mxGeometry width="50" height="50" relative="1" as="geometry">
            <mxPoint x="423" y="520" as="sourcePoint" />
            <mxPoint x="423" y="180" as="targetPoint" />
          </mxGeometry>
        </mxCell>
        <mxCell id="nTqg5RGJuCzNT9uh4TaG-6" value="" style="endArrow=none;dashed=1;html=1;dashPattern=1 3;strokeWidth=2;rounded=0;" edge="1" parent="WIyWlLk6GJQsqaUBKTNV-1">
          <mxGeometry width="50" height="50" relative="1" as="geometry">
            <mxPoint x="197" y="530" as="sourcePoint" />
            <mxPoint x="197" y="190" as="targetPoint" />
          </mxGeometry>
        </mxCell>
        <mxCell id="nTqg5RGJuCzNT9uh4TaG-7" value="公网" style="text;html=1;strokeColor=none;fillColor=none;align=center;verticalAlign=middle;whiteSpace=wrap;rounded=0;" vertex="1" parent="WIyWlLk6GJQsqaUBKTNV-1">
          <mxGeometry x="110" y="180" width="60" height="30" as="geometry" />
        </mxCell>
        <mxCell id="nTqg5RGJuCzNT9uh4TaG-8" value="内网" style="text;html=1;strokeColor=none;fillColor=none;align=center;verticalAlign=middle;whiteSpace=wrap;rounded=0;" vertex="1" parent="WIyWlLk6GJQsqaUBKTNV-1">
          <mxGeometry x="437" y="180" width="60" height="30" as="geometry" />
        </mxCell>
        <mxCell id="nTqg5RGJuCzNT9uh4TaG-9" value="内网业务server-1&lt;br&gt;192.168.10.4" style="rounded=1;whiteSpace=wrap;html=1;" vertex="1" parent="WIyWlLk6GJQsqaUBKTNV-1">
          <mxGeometry x="647" y="300" width="120" height="40" as="geometry" />
        </mxCell>
        <mxCell id="nTqg5RGJuCzNT9uh4TaG-10" value="内网业务server-2&lt;br&gt;192.168.10.5" style="rounded=1;whiteSpace=wrap;html=1;" vertex="1" parent="WIyWlLk6GJQsqaUBKTNV-1">
          <mxGeometry x="647" y="370" width="120" height="40" as="geometry" />
        </mxCell>
        <mxCell id="nTqg5RGJuCzNT9uh4TaG-22" style="edgeStyle=orthogonalEdgeStyle;rounded=0;orthogonalLoop=1;jettySize=auto;html=1;" edge="1" parent="WIyWlLk6GJQsqaUBKTNV-1" source="nTqg5RGJuCzNT9uh4TaG-12" target="nTqg5RGJuCzNT9uh4TaG-9">
          <mxGeometry relative="1" as="geometry" />
        </mxCell>
        <mxCell id="nTqg5RGJuCzNT9uh4TaG-23" style="edgeStyle=orthogonalEdgeStyle;rounded=0;orthogonalLoop=1;jettySize=auto;html=1;entryX=0;entryY=0.5;entryDx=0;entryDy=0;" edge="1" parent="WIyWlLk6GJQsqaUBKTNV-1" source="nTqg5RGJuCzNT9uh4TaG-12" target="nTqg5RGJuCzNT9uh4TaG-10">
          <mxGeometry relative="1" as="geometry" />
        </mxCell>
        <mxCell id="nTqg5RGJuCzNT9uh4TaG-12" value="ICDAClient&lt;br&gt;公网IP：116.198.3.188&lt;br&gt;内网IP：192.168.10.2" style="rounded=1;whiteSpace=wrap;html=1;" vertex="1" parent="WIyWlLk6GJQsqaUBKTNV-1">
          <mxGeometry x="447" y="330" width="140" height="50" as="geometry" />
        </mxCell>
        <mxCell id="nTqg5RGJuCzNT9uh4TaG-21" style="edgeStyle=orthogonalEdgeStyle;rounded=0;orthogonalLoop=1;jettySize=auto;html=1;" edge="1" parent="WIyWlLk6GJQsqaUBKTNV-1" source="nTqg5RGJuCzNT9uh4TaG-13" target="nTqg5RGJuCzNT9uh4TaG-12">
          <mxGeometry relative="1" as="geometry" />
        </mxCell>
        <mxCell id="nTqg5RGJuCzNT9uh4TaG-13" value="ICDAServer&lt;br&gt;公网IP：110.242.68.4" style="rounded=1;whiteSpace=wrap;html=1;" vertex="1" parent="WIyWlLk6GJQsqaUBKTNV-1">
          <mxGeometry x="247" y="330" width="140" height="50" as="geometry" />
        </mxCell>
        <mxCell id="nTqg5RGJuCzNT9uh4TaG-14" value="内网出口" style="text;html=1;strokeColor=none;fillColor=none;align=center;verticalAlign=middle;whiteSpace=wrap;rounded=0;" vertex="1" parent="WIyWlLk6GJQsqaUBKTNV-1">
          <mxGeometry x="247" y="180" width="140" height="30" as="geometry" />
        </mxCell>
        <mxCell id="nTqg5RGJuCzNT9uh4TaG-20" style="edgeStyle=orthogonalEdgeStyle;rounded=0;orthogonalLoop=1;jettySize=auto;html=1;" edge="1" parent="WIyWlLk6GJQsqaUBKTNV-1" source="nTqg5RGJuCzNT9uh4TaG-15" target="nTqg5RGJuCzNT9uh4TaG-13">
          <mxGeometry relative="1" as="geometry" />
        </mxCell>
        <mxCell id="nTqg5RGJuCzNT9uh4TaG-15" value="用户1" style="shape=umlActor;verticalLabelPosition=bottom;verticalAlign=top;html=1;outlineConnect=0;" vertex="1" parent="WIyWlLk6GJQsqaUBKTNV-1">
          <mxGeometry x="50" y="325" width="30" height="60" as="geometry" />
        </mxCell>
      </root>
    </mxGraphModel>
  </diagram>
</mxfile>
